<?xml version="1.0" encoding="UTF-8"?>
<svg id="Layer_2" data-name="Layer 2" xmlns="http://www.w3.org/2000/svg" viewBox="0 0 128.84 165.11">
  <defs>
    <style>
      .cls-1 {
        fill: #3e2469;
      }
    </style>
  </defs>
  <g id="Layer_1-2" data-name="Layer 1">
    <g>
      <path class="cls-1" d="m34.54,165.11s0-.09,0-.14c0,.09,0,.14,0,.14Z"/>
      <path class="cls-1" d="m64.42,0C28.84,0,0,28.84,0,64.42c0,26.06,15.47,48.5,37.73,58.64-1.46,4.81-2.13,9.93-1.78,15.44-.02-.72.1-4.46,3.66-14.62.35-1,.74-2.07,1.16-3.2,0,0,0,0,0,0,5.25-14.08,22.13-27.42,26.98-31.4,4.86-3.97,14.84-15.81,20.66-31-6.45,25.26-12.1,25.7-12.8,26.4s-.53,2.91-.53,3.8-11.13,8.92-22.08,22.08c-3.22,3.86-5.41,8.06-6.91,12.07-.41,1.09-.77,2.17-1.08,3.23-2.43,8.22-2.08,14.9-2.08,14.9,0,0-.21-6.06,3.17-14.58.4-1.01.85-2.06,1.36-3.14h0c7.71-19.22,38.74-39.15,39.62-39.77.88-.62,12.63-22.43,12.54-22.87s2.65.71,2.47,0,1.5-1.77,2.21-2.03c.71-.26,0,2.03.09,3.09s2.74,7.24,6.45,9.71c-1.06-10.42,2.03-20.58,2.03-22.34,0,0-8.9-16.56-24.19-29.54,2.14,1.98,5.2,5.19,9,10.2-16.69-17.57-36.38-18.99-58.28-14.57,8.21-1.41,16.95-.71,22.43.26,5.47.97,6.62,5.03-1.06,6-23.92,1.6-35.74,7.66-46.4,23.83,12.66-18.94,30.04-18.09,33.07-18.09s2.91-2.03,3-2.3c.09-.26,3.62-1.32,7.77,1.24,6.27-.26,18.81,4.06,21.37,7.15,3.18,4.33,5.39,18.01.18,33.73-5.21,15.72-23.75,27.73-31.7,37.62-3.88,4.83-7.07,9.94-9.21,15.45C17.92,110.16,3.4,88.99,3.4,64.42,3.4,30.72,30.72,3.4,64.42,3.4s61.02,27.32,61.02,61.02-27.32,61.02-61.02,61.02c-1.97,0-3.92-.1-5.85-.28-.38-.04-.77-.08-1.15-.12-1.95.3-2.31,2.65-.06,3.42.34.04.69.07,1.03.1,1.98.18,3.99.28,6.02.28,35.58,0,64.42-28.84,64.42-64.42S100,0,64.42,0Zm31.9,34.62c1.18-.93,2.59.68,3.56,1.9.97,1.22,3.91,3.05,3.9,5.93-.01,2.88-.04,4.08-.59,3.96-.54-.12-2.35-.79-2.35-1.93s.32-3.08.15-3.44c-.18-.37-5.96-5.28-4.67-6.42Zm-22.31-11.48s-3.27-.35-4.24-1.68c-.97-1.32.53-2.65,3.62-1.68,3.09.97,3.18,2.83.62,3.36Z"/>
    </g>
  </g>
</svg>